<?xml version="1.0" standalone="no"?>
<!DOCTYPE svg PUBLIC "-//W3C//DTD SVG 20010904//EN"
 "http://www.w3.org/TR/2001/REC-SVG-20010904/DTD/svg10.dtd">
<svg version="1.0" xmlns="http://www.w3.org/2000/svg"
 width="512.000000pt" height="512.000000pt" viewBox="0 0 512.000000 512.000000"
 preserveAspectRatio="xMidYMid meet">
<metadata>
Created by potrace 1.14, written by Peter Selinger 2001-2017
</metadata>
<g transform="translate(0.000000,512.000000) scale(0.100000,-0.100000)"
fill="#000000" stroke="none">
<path d="M3056 5090 c-62 -55 -69 -91 -70 -351 -1 -127 1 -234 4 -238 3 -3 73
-6 155 -6 83 0 177 -2 209 -5 l60 -5 0 242 c-1 272 -7 308 -70 363 -34 30 -36
30 -144 30 -108 0 -110 0 -144 -30z"/>
<path d="M1928 4620 c-85 -26 -129 -83 -136 -181 -7 -98 1 -110 288 -412 l75
-79 70 94 c83 111 127 156 184 184 l42 21 -172 173 c-109 109 -188 179 -213
191 -43 20 -93 23 -138 9z"/>
<path d="M4335 4611 c-22 -10 -58 -35 -80 -56 -22 -20 -94 -87 -159 -149 -66
-61 -126 -116 -134 -122 -19 -14 -16 -18 82 -92 64 -48 196 -193 196 -214 0
-14 44 24 208 180 79 74 150 148 158 164 54 104 4 237 -107 288 -55 25 -112
25 -164 1z"/>
<path d="M3150 4263 c-215 -16 -388 -74 -562 -190 -127 -84 -269 -245 -340
-388 -65 -130 -110 -328 -112 -501 l-1 -52 -69 -22 c-144 -46 -280 -119 -416
-221 -86 -65 -239 -214 -293 -285 -32 -43 -33 -43 -97 -45 -99 -2 -139 -6
-241 -28 -444 -93 -809 -419 -953 -851 -19 -58 -38 -125 -41 -150 -4 -25 -10
-65 -15 -90 -13 -67 -4 -314 14 -405 50 -248 176 -483 356 -661 177 -175 383
-287 635 -347 90 -21 98 -21 1615 -24 1307 -2 1537 0 1607 12 440 79 775 405
864 842 18 90 20 306 3 398 -73 394 -335 698 -711 823 -48 17 -110 33 -137 36
-27 4 -53 9 -57 12 -4 2 -53 5 -108 6 -98 2 -100 3 -109 27 -6 15 -28 73 -50
130 l-41 103 76 77 c149 149 250 345 278 536 4 22 8 47 11 56 7 24 7 208 0
264 -55 429 -339 771 -740 891 -99 30 -113 33 -201 40 -106 9 -127 9 -165 7z
m150 -217 c182 -17 370 -111 510 -256 156 -160 240 -365 241 -585 0 -227 -68
-405 -216 -563 l-57 -61 -41 52 c-136 174 -327 330 -522 428 -257 130 -489
173 -779 145 l-89 -8 7 87 c23 301 252 603 537 709 89 33 92 34 194 50 78 12
104 12 215 2z m-626 -1280 c153 -16 312 -78 470 -183 166 -110 282 -243 356
-406 27 -62 99 -274 105 -312 2 -11 7 -42 11 -70 4 -27 7 -58 7 -67 0 -10 2
-18 6 -19 3 0 123 -2 266 -4 271 -3 283 -4 376 -35 359 -121 525 -546 352
-899 -52 -106 -168 -222 -274 -274 -149 -73 -56 -69 -1694 -69 -1591 0 -1521
-2 -1671 53 -98 36 -213 110 -295 189 -174 170 -258 369 -261 620 -1 77 19
200 32 200 4 0 13 28 20 63 24 116 119 287 201 363 23 22 56 53 73 70 17 18
42 35 56 39 14 4 32 13 40 20 33 28 142 63 217 70 43 4 89 9 103 11 76 13 222
4 325 -21 33 -7 60 -13 61 -12 1 1 20 38 42 82 173 343 475 556 851 598 30 4
159 -1 225 -7z"/>
<path d="M2562 2455 l3 -108 55 -4 c202 -14 396 -137 497 -314 36 -63 70 -174
78 -251 4 -39 12 -68 19 -69 6 -1 53 -2 103 -3 l93 -1 0 55 c0 122 -86 358
-167 460 -157 197 -368 313 -611 336 l-73 6 3 -107z"/>
<path d="M4483 3412 c-19 -3 -21 -7 -15 -40 9 -50 9 -308 0 -352 l-8 -35 250
1 c241 2 252 3 297 25 30 15 59 40 78 67 27 39 30 52 30 115 0 105 -31 160
-115 202 -30 15 -66 18 -265 19 -126 1 -240 0 -252 -2z"/>
</g>
</svg>
